PathFileType	4	(X/Y/Z)	C:/Users/beibeiliu/ov580/test_trc/User1\sequence.22_training_dense_right.trc
DataRate	CameraRate	NumFrames	NumMarkers	Units	OrigDataRate	OrigDataStartFrame	OrigNumFrames
120	120	23	19	mm	120	1	273
Frame#	Time	ThumbCMC			ThumbMCP			ThumbIP			ThumbTip			IndexMCP			IndexPIP			IndexTip			MiddleMCP			MiddlePIP			MiddleTip			RingMCP			RingPIP			RingTip			PinkyMCP			PinkyPIP			PinkyTip			BackHand1			BackHand2			BackHand3	
		X0	Y0	Z0	X1	Y1	Z1	X2	Y2	Z2	X3	Y3	Z3	X4	Y4	Z4	X5	Y5	Z5	X6	Y6	Z6	X7	Y7	Z7	X8	Y8	Z8	X9	Y9	Z9	X10	Y10	Z10	X11	Y11	Z11	X12	Y12	Z12	X13	Y13	Z13	X14	Y14	Z14	X15	Y15	Z15	X16	Y16	Z16	X17	Y17	Z17	X18	Y18	Z18	
0	0	115.641	41.4546	78.6668	89.8778	20.6924	73.8539	70.4841	6.36609	60.892	53.4476	-4.26406	55.7639	125.712	34.9727	-4.04904	124.517	33.0881	-32.8898	122.932	34.0765	-53.7198	157.2	38.7451	-13.1398	155.202	36.716	-41.278	162.024	33.9473	-71.0287	179	33.5375	-6.48991	183.753	33.0487	-34.2298	191.069	30.2122	-59.4385	203.786	20.4428	14.2672	217.035	17.7034	0.921301	229.935	23.2217	-13.0928	176.04	48.7012	41.5669	177.96	65.5276	72.6456	142.967	59.4093	57.7825	
1	0.00833333	112.654	39.6682	74.4059	94.013	20.3526	73.3585	71.3838	5.38547	59.0566	52.6054	-4.01672	59.5648	125.712	34.0627	-4.33049	122.107	34.2744	-32.4059	126.221	33.8932	-57.7896	153.554	38.2153	-12.6532	154.779	36.3924	-45.5679	161.409	34.5044	-73.1403	176.839	33.954	-9.03001	187.514	33.1348	-30.9647	189.183	30.1274	-59.4801	202.97	20.2363	14.6561	218.052	17.6861	-0.378463	228.975	22.0707	-19.392	175.867	48.0364	41.8112	178.204	64.1886	72.4959	142.129	59.2743	54.3798	
2	0.0166667	112.87	41.0782	79.3735	93.7059	18.5635	71.357	70.7711	5.40454	60.7574	54.4798	-5.57424	56.5229	126.544	33.603	-4.80777	121.731	33.2227	-28.7519	126.869	32.6666	-54.6896	154.501	37.71	-17.7432	154.909	35.9891	-44.9972	162.264	34.0769	-74.3174	179.982	33.3	-7.31556	183.572	32.365	-31.4083	189.722	28.6647	-58.2305	204.3	20.6204	13.2106	217.254	16.16	1.78335	227.687	21.1214	-15.9629	177.303	47.3695	40.7582	181.573	63.5152	69.5835	144.813	59.4756	55.5837	
3	0.025	111.461	39.2968	76.9112	92.4463	19.2969	74.582	71.0462	3.7645	59.3976	52.5692	-7.57618	57.4338	124.713	33.121	-2.74391	122.019	32.3587	-32.8416	128.13	32.2561	-56.1386	158.568	37.274	-15.1016	159.106	35.2207	-45.4868	164.58	32.5116	-72.1468	178.67	33.7361	-8.85981	185.42	32.5205	-35.0655	188.508	27.7256	-58.8791	204.047	20.2159	14.6505	215.475	15.8519	3.06643	231.535	20.8163	-18.0003	174.671	48.5178	40.5579	180.384	61.7969	73.1576	141.038	56.7862	52.9504	
4	0.0333333	110.576	38.9825	75.6461	93.7307	18.1887	73.2378	71.9257	3.94454	60.8794	53.5886	-8.76687	56.6663	126.759	32.9914	-6.55805	122.477	32.4482	-29.4549	128.912	31.3134	-55.1198	154.04	37.1032	-11.947	157.13	34.2872	-45.4387	161.277	32.7073	-70.5844	178.248	32.0587	-3.91472	183.057	31.5808	-35.86	189.207	28.4881	-60.1831	204.846	19.5817	17.8355	218.768	15.9127	-0.659556	232.269	19.1319	-18.1064	175.936	48.1671	43.921	183.532	63.3211	72.3653	147.04	57.4626	56.3147	
5	0.0416667	111.621	37.2585	74.9501	95.6852	16.6503	72.0889	76.0185	3.68432	63.5345	56.6081	-8.07284	58.5583	124.262	31.6953	-4.83746	127.09	31.2109	-32.01	123.375	32.5908	-57.3897	156.957	36.4339	-11.9541	159.746	34.6901	-41.7413	161.026	31.7263	-68.9923	178.031	31.8381	-7.46217	186.414	31.677	-32.1668	187.431	26.8024	-56.2521	207.989	18.2486	15.414	215.845	15.32	1.74918	234.464	20.5306	-17.37	180.474	45.7804	41.4709	181.083	60.4918	70.33	146.855	55.4996	52.7602	
6	0.05	114.04	37.0176	75.449	92.5178	18.494	74.1028	70.2958	4.48357	62.7999	53.5169	-7.12247	60.7622	125.456	31.7028	-5.28054	121.784	31.8005	-32.2566	128.741	31.8397	-56.5787	154.141	36.7344	-13.5536	157.306	34.0321	-42.2027	161.938	31.1758	-71.2164	182.024	31.9355	-7.24728	187.446	30.7704	-32.3937	190.991	26.8878	-55.9278	204.219	18.4235	16.3492	220.382	13.8266	1.8441	234.568	19.1431	-17.8005	176.78	47.729	43.6883	178.752	60.8669	72.5044	144.482	55.0777	53.6277	
7	0.0583333	113.659	38.7265	79.6376	92.8004	18.4169	73.3857	72.1044	4.79525	62.4557	52.8138	-6.35204	58.1165	123.568	33.2235	-5.4191	125.101	31.7359	-34.1848	126.571	33.3546	-59.162	156.511	35.8297	-15.3288	157.821	33.4514	-43.864	165.402	31.1013	-75.1179	182.859	30.8368	-7.90988	188.816	30.2031	-33.6261	188.397	26.8811	-56.3104	204.061	18.8226	17.4691	215.831	14.1668	3.01628	233.171	19.7737	-15.0009	176.066	47.5491	39.2253	179.769	62.1394	73.9541	142.509	56.9793	56.4327	
8	0.0666667	115.896	37.2134	74.6938	93.216	18.7914	73.735	75.0811	5.54395	62.5089	54.925	-5.50569	59.4345	126.166	33.3961	-6.51012	124.42	34.0235	-32.3062	128.634	33.2703	-54.7818	157.63	36.6815	-13.9416	159.49	33.3695	-46.0103	162.65	30.3082	-69.3988	179.604	31.8249	-4.38134	185.665	29.8247	-31.1743	191.124	26.6235	-59.0116	206.508	18.2722	16.3832	216.797	12.8431	0.270117	233.097	16.5186	-12.2363	181.053	47.8776	40.8194	183.591	60.4799	71.2253	146.89	56.4391	57.4706	
9	0.075	114.943	40.6215	79.8461	92.9723	19.1838	73.8631	73.9278	7.29284	63.0547	53.7183	-3.86563	57.5043	128.616	35.0771	-6.0127	123.204	34.3549	-28.4999	127.699	34.1533	-57.5116	154.886	37.8348	-16.6491	159.122	33.5344	-45.6295	161.744	30.5822	-70.1687	181.072	31.6289	-4.6189	184.921	29.0497	-31.365	189.507	24.8027	-57.4041	208.832	17.2666	17.0818	217.723	11.9935	1.30034	230.22	15.926	-16.7408	176.811	46.4852	44.4525	184.197	59.2414	70.9541	149.573	58.7386	58.1311	
10	0.0833333	117.649	41.3497	76.4777	90.7005	22.3159	72.0691	70.577	9.70983	62.562	53.2816	-1.86758	55.1666	126.995	37.5772	-2.48813	123.594	36.9335	-32.6309	131.215	36.4187	-54.8195	158.112	37.8367	-15.8171	162.061	34.3949	-42.0805	164.515	28.0203	-70.924	183.591	30.9538	-8.565	187.073	27.7721	-32.6275	190.438	21.1804	-57.5871	209.116	15.2978	17.0052	217.023	9.44886	0.421477	232.385	9.95567	-20.8675	178.312	47.9248	46.1876	184.594	61.7314	75.0278	149.828	57.6677	59.6784	
11	0.0916667	118.562	44.4088	81.5594	97.2991	25.3156	71.126	71.2834	13.5174	57.16	51.3133	3.9733	52.0818	126.484	41.1611	-5.01587	127.21	40.4619	-31.925	129.895	39.8627	-57.5236	156.606	39.7148	-13.0319	161.304	33.6305	-44.2614	161.419	25.1638	-71.908	183.667	30.9608	-8.30885	188.395	24.0962	-32.9047	188.707	13.3476	-59.6215	205.963	13.867	11.4257	218.05	4.33065	-2.44722	230.057	-0.798098	-20.5917	182.055	47.9109	41.7281	186.109	60.2175	74.9203	147.71	59.3059	57.0028	
12	0.1	117.586	48.3123	81.0714	97.0759	29.9882	69.5635	75.8903	20.8077	57.8046	55.6617	13.285	50.0975	128.065	48.5344	-7.04691	129.646	46.0034	-31.6881	128.962	44.7944	-53.418	158.148	41.278	-18.2739	163.012	29.2015	-46.198	162.549	16.4279	-70.5675	182.821	29.6115	-9.8207	188.4	17.586	-36.0236	183.417	4.69823	-57.9911	206.928	11.2503	12.8597	211.83	-0.613005	-2.61515	219.171	-12.1308	-23.2347	182.924	51.4896	43.9868	188.142	58.673	76.2012	151.703	65.0061	61.5889	
13	0.108333	123.003	50.7935	76.8119	97.3899	34.6185	66.4493	78.1678	28.2081	50.9582	57.8782	21.6864	45.3893	135.285	52.9284	-4.77875	134.695	52.0719	-32.3056	134.36	50.4631	-60.2267	164.911	41.5161	-14.1333	162.504	28.0774	-42.8745	158.247	4.97218	-69.3003	185.685	26.3351	-10.6018	180.274	14.228	-34.0171	178.43	-5.60854	-50.7628	205.169	9.21016	16.1748	206.941	-8.42918	-3.46351	205.142	-19.8844	-22.2622	185.596	50.827	48.2559	191.243	57.1798	76.602	155.184	67.771	62.7051	
14	0.116667	123.771	55.68	74.8664	97.3977	41.808	64.7094	79.9031	36.3518	45.6125	57.5294	31.9108	32.9047	138.581	61.3444	-10.1761	139.461	56.4787	-37.0678	137.488	52.9272	-60.2386	162.965	43.7925	-17.426	161.394	25.953	-43.0501	147.269	-2.34327	-61.2752	185.838	24.9458	-10.1331	177.142	6.14194	-36.4721	162.511	-17.0197	-46.3148	200.417	7.18521	13.5535	201.46	-11.0926	-4.19453	186.215	-28.9716	-24.9562	191.555	47.2611	46.7848	192.994	55.2851	79.1287	160.417	67.2621	59.1283	
15	0.125	126.797	62.9192	71.1692	102.51	48.4947	56.9786	83.4203	45.7505	38.7301	65.5952	41.6129	25.9334	145.944	66.8899	-12.1108	143.452	60.7209	-40.4125	141.065	53.0699	-63.6089	167.611	44.3179	-21.1714	153.684	25.3663	-45.9665	134.308	-0.842303	-50.6318	181.542	26.2991	-13.5044	173.992	4.04127	-33.7982	149.167	-18.6074	-34.8264	196.902	4.42701	9.86918	188.67	-13.0322	-8.914	163.443	-25.4533	-21.7637	196.604	44.2404	47.0969	199.897	48.6898	76.6859	167.784	68.5012	61.7983	
16	0.133333	134.576	64.5341	69.4848	104.942	55.6458	51.728	89.6736	51.7845	28.2863	70.0722	49.2196	15.7495	153.623	67.668	-15.296	148.514	61.1438	-41.3537	144.739	45.2299	-66.2196	171.546	45.3848	-19.6209	153.159	26.2163	-43.496	128.195	0.253035	-36.7175	181.977	24.3935	-10.4174	161.16	2.48736	-32.2957	133.969	-12.4209	-21.4811	192.942	1.82018	9.86012	173.276	-12.4511	-11.5822	143.116	-17.1347	-12.4113	197.436	40.0924	47.3174	201.64	42.0355	80.211	174.747	66.1799	62.128	
17	0.141667	137.122	70.2585	65.7258	110.428	58.5339	44.8696	91.7504	58.1497	27.6655	75.5644	55.809	13.0672	161.159	64.4927	-17.3074	154.174	55.6009	-42.886	143.624	41.441	-62.7925	173.58	39.4327	-22.8135	148.119	22.5081	-41.5037	117.75	10.3963	-26.7307	178.821	21.5182	-14.7419	152.387	0.367472	-28.4684	128.004	-2.52297	-11.6576	185.794	0.143961	4.13238	162.952	-11.4538	-11.2828	133.714	-12.6894	-4.29182	199.037	33.8047	46.4347	201.395	36.226	81.7071	178.015	66.7477	61.071	
18	0.15	141.09	75.0117	68.1839	114.165	65.0302	42.5001	96.2997	64.0457	24.3206	79.6723	62.9925	6.76531	165.121	66.3376	-16.0672	157.502	54.8974	-40.8333	141.878	37.1687	-62.8703	173.992	40.2242	-24.3156	149.755	24.6358	-39.2362	116.961	15.4773	-16.6699	179.971	15.1429	-11.32	150.434	4.80846	-27.6228	125.108	5.22421	-2.73538	182.498	-1.6288	7.46149	155.131	-7.50574	-9.97528	130.871	-3.67838	3.55602	196.972	32.3762	45.0393	197.248	32.6775	79.7088	185.237	62.5246	60.231	
19	0.158333	147.783	76.5589	63.6971	121.743	67.9272	38.9353	105.954	66.7421	20.2531	88.1065	67.2012	1.46364	170.164	63.6288	-14.1828	158.416	53.9282	-41.3061	140.164	43.2616	-58.7404	175.862	33.7201	-23.0212	144.886	26.949	-36.6227	115.601	26.5212	-10.172	174.731	12.8826	-15.1065	142.98	9.67665	-24.5239	124.396	14.0644	5.71645	176.809	-2.51533	8.25051	151.034	-6.21832	-8.79781	127.281	9.49283	11.5271	197.094	27.352	43.5969	198.852	26.1256	77.7221	189.789	58.2189	62.3482	
20	0.166667	154.906	73.8194	61.5504	126.785	71.9793	41.0725	108.718	73.8612	16.5151	97.9626	67.9702	-3.0566	174.718	56.3072	-15.6322	159.76	53.4697	-40.8785	137.594	43.9216	-56.3355	177.671	35.1875	-19.8383	145.615	28.9068	-35.968	117.384	37.9467	-4.34078	171.854	11.9079	-14.2762	137.949	12.795	-20.6764	125.078	16.4778	7.98455	170.808	-9.6587	6.51572	144.593	-6.64649	-6.96779	124.796	10.4914	16.114	196.893	16.3916	49.427	197.944	18.7126	81.8027	192.344	57.4792	57.3877	
21	0.175	160.576	75.8299	60.4035	132.263	72.6061	35.2388	115.487	76.3525	12.0214	102.09	73.3848	-3.69213	175.848	53.8814	-19.1213	161.806	51.4916	-39.0719	132.462	45.0007	-55.8766	174.483	29.956	-21.3952	139.826	35.6632	-31.4502	121.508	43.4749	2.28255	165.719	6.91308	-13.8327	135.565	13.1018	-17.8524	124.955	22.9816	13.4826	162.546	-10.4971	4.72101	137.529	-0.100591	-3.89592	125.901	18.676	19.9679	194.099	16.2535	49.9322	193.251	15.2462	82.2667	196.18	47.9861	61.5242	
22	0.183333	166.072	74.069	60.3135	137.812	74.9289	37.2352	123.965	76.6563	7.88486	109.245	76.3652	-9.24217	178.228	51.8978	-19.1904	157.948	49.7452	-39.1007	132.767	46.5279	-51.4454	172.501	25.4529	-17.0588	138.466	34.3215	-26.9169	127.111	49.2319	10.1319	161.966	5.26747	-8.969	130.23	18.6537	-14.7467	125.743	28.6147	18.8835	156.237	-7.54002	5.09423	130.289	1.86478	-1.95553	127.928	26.6603	22.8666	191.583	10.4641	45.6966	189.137	13.3911	84.5481	197.019	43.6161	58.454	
